<svg xmlns="http://www.w3.org/2000/svg" width="25" height="25" viewBox="0 0 30 30">
	<path fill="currentColor" d="M 15.015625 28.125 C 12.433594 28.125 10.328125 26.023438 10.328125 23.4375 C 10.328125 22.921875 10.75 22.5 11.265625 22.5 C 11.785156 22.5 12.203125 22.921875 12.203125 23.4375 C 12.203125 24.992188 13.464844 26.25 15.015625 26.25 C 16.570312 26.25 17.828125 24.992188 17.828125 23.4375 C 17.828125 22.921875 18.25 22.5 18.765625 22.5 C 19.28125 22.5 19.703125 22.921875 19.703125 23.4375 C 19.703125 26.023438 17.601562 28.125 15.015625 28.125 Z M 15.015625 28.125 "/>
	<path fill="currentColor" d="M 25.328125 24.375 L 4.707031 24.375 C 3.5 24.375 2.519531 23.398438 2.519531 22.1875 C 2.519531 21.550781 2.800781 20.941406 3.289062 20.523438 C 5.1875 18.921875 6.269531 16.582031 6.269531 14.109375 L 6.269531 10.625 C 6.269531 5.800781 10.195312 1.875 15.015625 1.875 C 19.839844 1.875 23.765625 5.800781 23.765625 10.625 L 23.765625 14.109375 C 23.765625 16.582031 24.851562 18.921875 26.734375 20.515625 C 27.234375 20.941406 27.515625 21.546875 27.515625 22.183594 C 27.523438 23.398438 26.539062 24.375 25.328125 24.375 Z M 15.015625 3.75 C 11.226562 3.75 8.144531 6.832031 8.144531 10.625 L 8.144531 14.109375 C 8.144531 17.132812 6.820312 19.992188 4.507812 21.949219 C 4.460938 21.984375 4.394531 22.066406 4.394531 22.191406 C 4.394531 22.359375 4.535156 22.5 4.703125 22.5 L 25.328125 22.5 C 25.5 22.5 25.640625 22.359375 25.640625 22.191406 C 25.640625 22.066406 25.570312 21.984375 25.53125 21.949219 C 23.214844 19.992188 21.890625 17.132812 21.890625 14.109375 L 21.890625 10.625 C 21.898438 6.832031 18.808594 3.75 15.015625 3.75 Z M 15.015625 3.75 "/>
</svg>
