<svg xmlns="http://www.w3.org/2000/svg" width="25" height="25" viewBox="0 0 30 30">
    <path fill="currentColor" d="M 26.132812 7.5 L 21.09375 7.5 L 21.09375 6.09375 C 21.09375 2.734375 18.359375 0 15 0 C 11.640625 0 8.90625 2.734375 8.90625 6.09375 L 8.90625 7.5 L 3.867188 7.5 C 2.378906 7.5 1.171875 8.707031 1.171875 10.195312 L 0 27.304688 C 0 28.792969 1.207031 30 2.695312 30 L 27.304688 30 C 28.792969 30 30 28.792969 30 27.304688 L 28.828125 10.195312 C 28.828125 8.707031 27.621094 7.5 26.132812 7.5 Z M 10.78125 6.09375 C 10.78125 3.765625 12.671875 1.875 15 1.875 C 17.328125 1.875 19.21875 3.765625 19.21875 6.09375 L 19.21875 7.5 L 10.78125 7.5 Z M 28.125 27.304688 C 28.125 27.757812 27.757812 28.125 27.304688 28.125 L 2.695312 28.125 C 2.242188 28.125 1.875 27.757812 1.875 27.304688 L 3.046875 10.195312 C 3.046875 9.742188 3.414062 9.375 3.867188 9.375 L 26.132812 9.375 C 26.585938 9.375 26.953125 9.742188 26.953125 10.195312 Z M 28.125 27.304688 "/>
</svg>
