<svg xmlns="http://www.w3.org/2000/svg" width="27" height="25" viewBox="0 0 27 25">
    <g fill="none" fill-rule="evenodd">
        <g fill="currentColor">
            <g>
                <g>
                    <g>
                        <g>
                            <g>
                                <path d="M6.27 0l10.367.072 1.519.495c2.626.856 4.754 3.796 4.754 6.549v10.906c0 2.212-1.798 3.999-3.99 3.992l-14.93-.047C1.788 21.96 0 20.17 0 17.95V7.044C0 4.284 2.123 1.353 4.752.495L6.27 0zM16.5 2h-10c.075 1.005.966 3.025 2.518 3.816 1.455.742 3.68.713 5.01 0C15.443 5.058 16.334 3.64 16.5 2z" transform="translate(-174 -984) translate(0 978) translate(150) translate(24.5 6) translate(.5) translate(1 2)"/>
                                <path d="M9.5 4.46L13.5 4.46 13.5 3 9.5 3z" transform="translate(-174 -984) translate(0 978) translate(150) translate(24.5 6) translate(.5) translate(1 2)"/>
                            </g>
                        </g>
                    </g>
                </g>
            </g>
        </g>
    </g>
</svg>
