<svg xmlns="http://www.w3.org/2000/svg" xmlns:xlink="http://www.w3.org/1999/xlink" width="26" height="25" viewBox="0 0 26 25">
    <defs>
        <path id="wgyyv23wta" d="M7.896 16.188v6.254L7 23.722l-.897-1.28v-6.254H.8c-.442 0-.8-.358-.8-.8v-3.181l2.702-2.131V4.829H1.509c-.276 0-.5-.224-.5-.5V.8c0-.442.359-.8.8-.8h10.38c.442 0 .8.358.8.8v3.529c0 .276-.224.5-.5.5h-1.194v5.247L14 12.206v3.182c0 .442-.359.8-.8.8H7.896z"/>
    </defs>
    <g fill="none" fill-rule="evenodd">
        <g>
            <g>
                <g>
                    <g>
                        <g>
                            <g transform="translate(-325 -984) translate(0 978) translate(300) translate(22 6) translate(3) translate(6 1)">
                                <mask id="e5lcumpdpb">
                                    <use xlink:href="#wgyyv23wta"/>
                                </mask>
                                <use fill="currentColor" fill-rule="nonzero" xlink:href="#wgyyv23wta"/>
                                <g mask="url(#e5lcumpdpb)">
                                    <g>
                                        <path d="M0 0L14 0 14 24 0 24z"/>
                                    </g>
                                </g>
                            </g>
                        </g>
                    </g>
                </g>
            </g>
        </g>
    </g>
</svg>
