<svg xmlns="http://www.w3.org/2000/svg" width="22" height="22" viewBox="0 0 22 22">
    <g fill="none" fill-rule="evenodd">
        <g fill="currentColor">
            <g>
                <g>
                    <path d="M20.33 0c1.446.024 2.17.766 2.17 2.225v8.446c-.074.738-.33 1.283-.764 1.635-.282.228-1.7 1.614-4.251 4.158l-.449.447-.963.963-1.053 1.054c-.823.824-1.721 1.725-2.694 2.703-.794.549-1.566.486-2.316-.19-.52-.467-2.498-2.377-4.509-4.388l-.503-.504C2.824 14.363.751 12.192.591 11.742c-.214-.6-.05-1.171.488-1.713L10.346.732C10.748.244 11.302 0 12.008 0h8.321zM12.5 12c-1.105 0-2 .895-2 2s.895 2 2 2 2-.895 2-2-.895-2-2-2zm0 1c.552 0 1 .448 1 1s-.448 1-1 1-1-.448-1-1 .448-1 1-1zm3.72-5.186L7.562 12.36l.221.57 8.858-4.505-.423-.611zM11.5 5c-1.105 0-2 .895-2 2s.895 2 2 2 2-.895 2-2-.895-2-2-2zm0 1c.552 0 1 .448 1 1s-.448 1-1 1-1-.448-1-1 .448-1 1-1z" transform="translate(-251 -986) translate(0 978) translate(250.5 8)"/>
                </g>
            </g>
        </g>
    </g>
</svg>
