<svg xmlns="http://www.w3.org/2000/svg" viewBox="0 0 20 20" width="20" height="20" >
    <g transform="matrix(0.037706293165683746,0,0,0.037706293165683746,15.278881072998047,18.421043395996094)">
        <g transform="matrix(0.7940099835395813,0,0,0.7940099835395813,-140,-208)">
            <path fill="none" stroke-linecap="round" stroke-linejoin="round" stroke="rgb(250,39,59)" stroke-width="28" d=" M1.2499786328343167e-14,-204.13699340820312 C1.2499786328343167e-14,-204.13699340820312 59.994651794433594,-82.57555389404297 59.994651794433594,-82.57555389404297 C59.994651794433594,-82.57555389404297 194.1458282470703,-63.08180236816406 194.1458282470703,-63.08180236816406 C194.1458282470703,-63.08180236816406 97.0733871459961,31.54105567932129 97.0733871459961,31.54105567932129 C97.0733871459961,31.54105567932129 119.98871612548828,165.15029907226562 119.98871612548828,165.15029907226562 C119.98871612548828,165.15029907226562 6.249923657357685e-15,102.06900024414062 6.249923657357685e-15,102.06900024414062 C6.249923657357685e-15,102.06900024414062 -119.98871612548828,165.15029907226562 -119.98871612548828,165.15029907226562 C-119.98871612548828,165.15029907226562 -97.0733871459961,31.54105567932129 -97.0733871459961,31.54105567932129 C-97.0733871459961,31.54105567932129 -194.1458282470703,-63.08180236816406 -194.1458282470703,-63.08180236816406 C-194.1458282470703,-63.08180236816406 -59.994651794433594,-82.57555389404297 -59.994651794433594,-82.57555389404297 C-59.994651794433594,-82.57555389404297 1.2499786328343167e-14,-204.13699340820312 1.2499786328343167e-14,-204.13699340820312z" />
        </g>
    </g>
</svg>
