<svg xmlns="http://www.w3.org/2000/svg" width="25" height="25" viewBox="0 0 25 25">
    <g fill="none" fill-rule="evenodd">
        <g fill="currentColor" fill-rule="nonzero">
            <g>
                <g>
                    <g>
                        <g>
                            <path d="M9 1v2h9V1h2.5v2h.5c1.657 0 3 1.343 3 3v15c0 1.657-1.343 3-3 3H6c-1.657 0-3-1.343-3-3V6c0-1.657 1.343-3 3-3h.5V1H9zm11.667 8.05H6.333c-.552 0-1 .448-1 1V20.7c0 .552.448 1 1 1h14.334c.552 0 1-.448 1-1V10.05c0-.552-.448-1-1-1zm-12 2.3H12.5c.552 0 1 .448 1 1v3.75c0 .552-.448 1-1 1H8.667c-.553 0-1-.448-1-1v-3.75c0-.552.447-1 1-1z" transform="translate(-100 -984) translate(0 978) translate(75) translate(20 6) translate(4.5)"/>
                        </g>
                    </g>
                </g>
            </g>
        </g>
    </g>
</svg>
